# xmcd
#
# Track frame offsets: 
#        200
#        22400
#        47497
#        71295
#        93920
#        122175
#        142960
#        168170
#
# Disc length: 2539 seconds
#
# Revision: 1
# Processed by: cddbd v1.5.2PL0 Copyright (c) Steve Scherf et al.
# Submitted via: ExactAudioCopy v0.99pb5
#
DISCID=6509e908
DTITLE=Willie  Gonzalez - El  Original  Y  Unico
DYEAR=1989
DGENRE=Salsa
TTITLE0=En La Intimidad (Como Cada Viernes)
TTITLE1=Amor Pirata
TTITLE2=No Es Casualidad
TTITLE3=Dejame Saciarme De Ti
TTITLE4=Quiero Morir En Tu Piel
TTITLE5=Devuelveme
TTITLE6=Hazme Olvidarla
TTITLE7=Nuestro Amor Perfecto
EXTD=YEAR: 1989
EXTT0=
EXTT1=
EXTT2=
EXTT3=
EXTT4=
EXTT5=
EXTT6=
EXTT7=
PLAYORDER=
